Coordinates
version=1
nRows=10
nColumns=40
inDegrees=yes

Units are S.I. units (second, meters, Newtons, ...)
Angles are in degrees.

endheader
time	pelvis_tilt	pelvis_list	pelvis_rotation	pelvis_tx	pelvis_ty	pelvis_tz	hip_flexion_r	hip_adduction_r	hip_rotation_r	knee_angle_r	knee_angle_r_beta	ankle_angle_r	subtalar_angle_r	mtp_angle_r	hip_flexion_l	hip_adduction_l	hip_rotation_l	knee_angle_l	knee_angle_l_beta	ankle_angle_l	subtalar_angle_l	mtp_angle_l	lumbar_extension	lumbar_bending	lumbar_rotation	arm_flex_r	arm_add_r	arm_rot_r	elbow_flex_r	pro_sup_r	wrist_flex_r	wrist_dev_r	arm_flex_l	arm_add_l	arm_rot_l	elbow_flex_l	pro_sup_l	wrist_flex_l	wrist_dev_l
     24.58228571	     -5.65943423	     -5.77133731	      3.61934200	      0.92280395	      0.91745484	      0.50085912	     -1.71664461	      5.95871710	    -20.05776245	      6.95528651	      6.95528651	     16.54185892	      5.45050136	     -3.10483677	     31.98991521	     -6.43254560	     -1.71476584	     22.78672233	     22.78672233	      3.89976463	    -13.43675869	      7.98367415	     -6.87236159	      5.97868415	      5.00876202	     42.22352535	    -17.46501997	    -11.63325506	     77.25757232	     45.13568178	      0.00000000	      0.00000000	    -12.49357516	     -6.80822434	      4.81833485	     23.70047414	     44.85877549	      0.00000000	      0.00000000
     24.59457143	     -5.67628872	     -5.66323505	      3.49656402	      0.92342250	      0.91649993	      0.49963039	     -1.88351790	      5.62545699	    -19.81541016	      7.73971084	      7.73971084	     17.07695066	      5.11148092	     -3.13508298	     31.71367696	     -6.29723648	     -1.66149681	     23.58388718	     23.58388718	      3.81956616	    -13.96069572	      7.76997709	     -6.76244315	      5.77465594	      4.86263047	     41.87415518	    -17.22703242	    -11.62859309	     77.42133059	     45.13203593	      0.00000000	      0.00000000	    -12.48165715	     -6.85850429	      4.78752561	     23.60129174	     44.87797274	      0.00000000	      0.00000000
     24.60685714	     -5.60313086	     -5.49457714	      3.40479923	      0.92427848	      0.91598602	      0.49826463	     -2.33109995	      5.28341802	    -19.58369860	      8.17133008	      8.17133008	     17.39683491	      4.95151268	     -3.17676650	     31.29572267	     -6.09695772	     -1.59997388	     24.26701874	     24.26701874	      3.99395527	    -14.33025435	      7.55667153	     -6.71330225	      5.46605441	      4.69162204	     41.20914220	    -16.97333719	    -11.57036201	     77.35240605	     45.13018003	      0.00000000	      0.00000000	    -12.34251455	     -6.91718401	      4.77510616	     23.59811603	     44.88633077	      0.00000000	      0.00000000
     24.61914286	     -5.67601307	     -5.30010535	      3.28838215	      0.92477828	      0.91542579	      0.49670857	     -2.09139899	      4.71796805	    -19.21661535	      9.62562228	      9.62562228	     17.98557854	      4.12101293	     -2.98470344	     31.11281881	     -5.82290519	     -1.43718557	     24.94843541	     24.94843541	      4.08545442	    -14.97292082	      7.19517444	     -6.58616204	      5.21541176	      4.56241093	     40.50577155	    -16.74537115	    -11.69447160	     77.73904756	     45.12285540	      0.00000000	      0.00000000	    -12.03147521	     -6.96247893	      4.71260204	     23.46634938	     44.92124994	      0.00000000	      0.00000000
     24.63142857	     -5.54693246	     -5.12864116	      3.23336067	      0.92570192	      0.91559850	      0.49499136	     -2.55260354	      4.33387553	    -19.02570899	     10.13150179	     10.13150179	     18.09649441	      3.92004104	     -2.93244435	     30.64033570	     -5.57649432	     -1.29980483	     25.50364977	     25.50364977	      4.50520571	    -15.30551898	      6.91686065	     -6.61710003	      4.99208293	      4.33646783	     39.54626181	    -16.46468235	    -11.63598417	     77.59547499	     45.12233931	      0.00000000	      0.00000000	    -11.67217407	     -7.04154920	      4.69422512	     23.50791698	     44.93556171	      0.00000000	      0.00000000
     24.64371429	     -5.54950684	     -4.86194727	      3.11313417	      0.92633580	      0.91582984	      0.49304007	     -2.36445840	      3.65022930	    -18.63724272	     11.62518000	     11.62518000	     18.46738015	      3.16466686	     -2.70496230	     30.26258063	     -5.21315923	     -1.22520194	     25.93285832	     25.93285832	      4.92169629	    -15.79026987	      6.66072884	     -6.57160385	      4.69212119	      4.35688931	     38.38895531	    -16.41791015	    -11.81814685	     77.78130022	     45.12199147	      0.00000000	      0.00000000	    -11.01450905	     -7.10543361	      4.61903103	     23.37597363	     44.98041236	      0.00000000	      0.00000000
     24.65600000	     -5.43331109	     -4.66434845	      3.04823842	      0.92718364	      0.91660096	      0.49087530	     -2.57485798	      3.11892176	    -18.39005877	     12.56817612	     12.56817612	     18.51537620	      2.82813822	     -2.58095512	     29.70634338	     -4.89719342	     -1.11970917	     26.26130121	     26.26130121	      5.47929761	    -16.09681062	      6.48561692	     -6.61996272	      4.53823844	      4.27372974	     37.09124306	    -16.27387437	    -11.87458913	     77.65688135	     45.12544531	      0.00000000	      0.00000000	    -10.34224797	     -7.16608418	      4.56878592	     23.35590246	     45.01456983	      0.00000000	      0.00000000
     24.66828571	     -5.37539861	     -4.48080862	      2.93857862	      0.92794838	      0.91762680	      0.48865847	     -2.51188238	      2.51324772	    -18.21742001	     13.89802251	     13.89802251	     18.47658427	      2.40006626	     -2.55746790	     29.10983392	     -4.60108504	     -1.11049438	     26.39494500	     26.39494500	      6.04291809	    -16.38780227	      6.52577431	     -6.58247648	      4.37923450	      4.36126651	     35.56241657	    -16.26551308	    -12.01272970	     77.46441023	     45.13457057	      0.00000000	      0.00000000	     -9.43386812	     -7.18093048	      4.49164282	     23.31235496	     45.06364600	      0.00000000	      0.00000000
     24.68057143	     -5.18134923	     -4.49132904	      2.91360766	      0.92893155	      0.91908879	      0.48628970	     -2.83356696	      2.19965635	    -18.11929387	     14.72949004	     14.72949004	     18.13859914	      2.25910138	     -2.59431808	     28.36418391	     -4.47973847	     -0.99686848	     26.50244588	     26.50244588	      6.59622373	    -16.52868750	      6.40780593	     -6.65853403	      4.53957534	      4.08031581	     34.13073027	    -15.87711058	    -11.88600919	     77.03216756	     45.13903332	      0.00000000	      0.00000000	     -8.72152127	     -7.16760538	      4.47921040	     23.50924088	     45.08253280	      0.00000000	      0.00000000
     24.69285714	     -5.17423625	     -4.17048579	      2.69574896	      0.92963515	      0.92050506	      0.48379109	     -2.36966464	      1.26897108	    -17.87993243	     16.69879523	     16.69879523	     17.90774344	      1.75925801	     -3.13706507	     27.55661938	     -4.05556259	     -1.24202179	     26.22292448	     26.22292448	      7.14121154	    -16.64224685	      6.61664922	     -6.59859619	      4.25701301	      4.35278631	     32.45720220	    -16.09649230	    -11.98731983	     76.26111816	     45.16427647	      0.00000000	      0.00000000	     -7.72097496	     -7.26353946	      4.36853632	     23.73979644	     45.13165650	      0.00000000	      0.00000000
